<svg width="32" height="32" viewBox="0 0 32 32" xmlns="http://www.w3.org/2000/svg"><g fill="none" fill-rule="evenodd"><path stroke="#323232" stroke-linecap="round" stroke-linejoin="round" stroke-width="1.5" d="M10 4h12a6 6 0 016 6v12a6 6 0 01-6 6H10a6 6 0 01-6-6V10a6 6 0 016-6h0z"></path><path stroke="#323232" stroke-linecap="round" stroke-linejoin="round" stroke-width="1.5" d="M22.6 9c-.2 0-.5.2-.5.4a.5.5 0 10.5-.4M19.4 12.6a4.8 4.8 0 11-6.8 6.8 4.8 4.8 0 016.8-6.8"></path><path d="M0 32V0h32v32z"></path></g></svg>