<svg xmlns="http://www.w3.org/2000/svg" enable-background="new 0 0 512 512" viewBox="0 0 512 512" id="youtube"><polygon fill="none" points="222.1 313.9 322.3 256 222.1 198.1"></polygon><path fill="none" d="M443.2,98.2c-55.9-3.7-146.9-7.1-187.2-7.1s-131.3,3.5-187.2,7.1c-24,1.6-42.8,21.6-42.8,45.7v224.2
		c0,24,18.8,44.1,42.8,45.7c55.9,3.7,146.9,7.1,187.2,7.1s131.3-3.5,187.2-7.1c24-1.6,42.8-21.6,42.8-45.7V143.9
		C486,119.9,467.2,99.8,443.2,98.2z M347.3,264.7l-130.2,75.2c-1.5,0.9-3.3,1.3-5,1.3s-3.5-0.4-5-1.3c-3.1-1.8-5-5.1-5-8.7V180.8
		c0-3.6,1.9-6.9,5-8.7s6.9-1.8,10,0l130.2,75.2c3.1,1.8,5,5.1,5,8.7C352.3,259.6,350.4,262.9,347.3,264.7z"></path><path fill="#231f20" d="M444.5,78.3c-56.3-3.7-147.9-7.2-188.5-7.2s-132.3,3.5-188.5,7.2C33,80.5,6,109.4,6,143.9v224.2
		c0,34.5,27,63.4,61.5,65.6c56.3,3.7,147.9,7.2,188.5,7.2s132.3-3.5,188.5-7.2c34.5-2.3,61.5-31.1,61.5-65.6V143.9
		C506,109.4,479,80.5,444.5,78.3z M486,368.1c0,24-18.8,44.1-42.8,45.7c-55.9,3.7-146.9,7.1-187.2,7.1s-131.3-3.5-187.2-7.1
		c-24-1.6-42.8-21.6-42.8-45.7V143.9c0-24,18.8-44.1,42.8-45.7c55.9-3.7,146.9-7.1,187.2-7.1s131.3,3.5,187.2,7.1
		c24,1.6,42.8,21.6,42.8,45.7V368.1z"></path><path fill="#231f20" d="M347.3,247.3l-130.2-75.2c-3.1-1.8-6.9-1.8-10,0s-5,5.1-5,8.7v150.4c0,3.6,1.9,6.9,5,8.7
		c1.5,0.9,3.3,1.3,5,1.3s3.5-0.4,5-1.3l130.2-75.2c3.1-1.8,5-5.1,5-8.7C352.3,252.4,350.4,249.1,347.3,247.3z M222.1,313.9V198.1
		L322.3,256L222.1,313.9z"></path></svg>